<mxfile host="app.diagrams.net" modified="2023-07-16T22:03:58.515Z" agent="Mozilla/5.0 (Macintosh; Intel Mac OS X 10_15_7) AppleWebKit/537.36 (KHTML, like Gecko) Chrome/114.0.0.0 Safari/537.36" etag="H5TDR2ySYNNyrRrn3eaH" version="21.6.2" type="device">
  <diagram name="Página-1" id="BwANNkHcvyUyTeSPv78v">
    <mxGraphModel dx="954" dy="619" grid="1" gridSize="10" guides="1" tooltips="1" connect="1" arrows="1" fold="1" page="1" pageScale="1" pageWidth="827" pageHeight="1169" math="0" shadow="0">
      <root>
        <mxCell id="0" />
        <mxCell id="1" parent="0" />
        <mxCell id="DNJKY25j3gg6kxP67qaG-7" style="edgeStyle=orthogonalEdgeStyle;rounded=0;orthogonalLoop=1;jettySize=auto;html=1;" edge="1" parent="1" source="DNJKY25j3gg6kxP67qaG-1" target="DNJKY25j3gg6kxP67qaG-6">
          <mxGeometry relative="1" as="geometry" />
        </mxCell>
        <mxCell id="DNJKY25j3gg6kxP67qaG-9" style="edgeStyle=orthogonalEdgeStyle;rounded=0;orthogonalLoop=1;jettySize=auto;html=1;entryX=0.462;entryY=0.957;entryDx=0;entryDy=0;entryPerimeter=0;" edge="1" parent="1" source="DNJKY25j3gg6kxP67qaG-1" target="DNJKY25j3gg6kxP67qaG-8">
          <mxGeometry relative="1" as="geometry" />
        </mxCell>
        <mxCell id="DNJKY25j3gg6kxP67qaG-1" value="Arquivo&lt;br&gt;DBML" style="shape=card;whiteSpace=wrap;html=1;" vertex="1" parent="1">
          <mxGeometry x="60" y="180" width="80" height="100" as="geometry" />
        </mxCell>
        <mxCell id="DNJKY25j3gg6kxP67qaG-3" value="&lt;br&gt;SQLite" style="strokeWidth=2;html=1;shape=mxgraph.flowchart.database;whiteSpace=wrap;" vertex="1" parent="1">
          <mxGeometry x="430" y="60" width="100" height="90" as="geometry" />
        </mxCell>
        <mxCell id="DNJKY25j3gg6kxP67qaG-14" style="edgeStyle=orthogonalEdgeStyle;rounded=0;orthogonalLoop=1;jettySize=auto;html=1;entryX=0;entryY=0.5;entryDx=0;entryDy=0;entryPerimeter=0;" edge="1" parent="1" source="DNJKY25j3gg6kxP67qaG-6" target="DNJKY25j3gg6kxP67qaG-3">
          <mxGeometry relative="1" as="geometry">
            <Array as="points">
              <mxPoint x="285" y="105" />
            </Array>
          </mxGeometry>
        </mxCell>
        <mxCell id="DNJKY25j3gg6kxP67qaG-16" style="edgeStyle=orthogonalEdgeStyle;rounded=0;orthogonalLoop=1;jettySize=auto;html=1;" edge="1" parent="1" source="DNJKY25j3gg6kxP67qaG-6" target="DNJKY25j3gg6kxP67qaG-12">
          <mxGeometry relative="1" as="geometry">
            <Array as="points">
              <mxPoint x="590" y="310" />
              <mxPoint x="590" y="240" />
            </Array>
          </mxGeometry>
        </mxCell>
        <mxCell id="DNJKY25j3gg6kxP67qaG-6" value="script de construção &lt;br&gt;do banco de dados" style="sketch=0;pointerEvents=1;shadow=0;dashed=0;html=1;strokeColor=none;fillColor=#505050;labelPosition=center;verticalLabelPosition=bottom;verticalAlign=top;outlineConnect=0;align=center;shape=mxgraph.office.concepts.script;" vertex="1" parent="1">
          <mxGeometry x="250" y="280" width="70" height="60" as="geometry" />
        </mxCell>
        <mxCell id="DNJKY25j3gg6kxP67qaG-8" value="Documentação do banco de dados" style="shape=document;whiteSpace=wrap;html=1;boundedLbl=1;" vertex="1" parent="1">
          <mxGeometry x="40" y="60" width="130" height="70" as="geometry" />
        </mxCell>
        <mxCell id="DNJKY25j3gg6kxP67qaG-15" style="edgeStyle=orthogonalEdgeStyle;rounded=0;orthogonalLoop=1;jettySize=auto;html=1;entryX=1;entryY=0.5;entryDx=0;entryDy=0;entryPerimeter=0;" edge="1" parent="1" source="DNJKY25j3gg6kxP67qaG-12" target="DNJKY25j3gg6kxP67qaG-3">
          <mxGeometry relative="1" as="geometry">
            <Array as="points">
              <mxPoint x="680" y="105" />
            </Array>
          </mxGeometry>
        </mxCell>
        <mxCell id="DNJKY25j3gg6kxP67qaG-12" value="Arquivos csv com os &lt;br&gt;dados simulados" style="sketch=0;outlineConnect=0;fontColor=#232F3E;gradientColor=none;strokeColor=#232F3E;fillColor=#ffffff;dashed=0;verticalLabelPosition=bottom;verticalAlign=top;align=center;html=1;fontSize=12;fontStyle=0;aspect=fixed;shape=mxgraph.aws4.resourceIcon;resIcon=mxgraph.aws4.documents;" vertex="1" parent="1">
          <mxGeometry x="650" y="210" width="60" height="60" as="geometry" />
        </mxCell>
        <mxCell id="DNJKY25j3gg6kxP67qaG-19" value="Database" style="swimlane;fontStyle=0;childLayout=stackLayout;horizontal=1;startSize=26;fillColor=none;horizontalStack=0;resizeParent=1;resizeParentMax=0;resizeLast=0;collapsible=1;marginBottom=0;whiteSpace=wrap;html=1;" vertex="1" parent="1">
          <mxGeometry x="344" y="350" width="140" height="142" as="geometry" />
        </mxCell>
        <mxCell id="DNJKY25j3gg6kxP67qaG-20" value="create_database" style="text;strokeColor=none;fillColor=none;align=left;verticalAlign=top;spacingLeft=4;spacingRight=4;overflow=hidden;rotatable=0;points=[[0,0.5],[1,0.5]];portConstraint=eastwest;whiteSpace=wrap;html=1;" vertex="1" parent="DNJKY25j3gg6kxP67qaG-19">
          <mxGeometry y="26" width="140" height="26" as="geometry" />
        </mxCell>
        <mxCell id="DNJKY25j3gg6kxP67qaG-21" value="connection" style="text;strokeColor=none;fillColor=none;align=left;verticalAlign=top;spacingLeft=4;spacingRight=4;overflow=hidden;rotatable=0;points=[[0,0.5],[1,0.5]];portConstraint=eastwest;whiteSpace=wrap;html=1;" vertex="1" parent="DNJKY25j3gg6kxP67qaG-19">
          <mxGeometry y="52" width="140" height="26" as="geometry" />
        </mxCell>
        <mxCell id="DNJKY25j3gg6kxP67qaG-22" value="list_tables" style="text;strokeColor=none;fillColor=none;align=left;verticalAlign=top;spacingLeft=4;spacingRight=4;overflow=hidden;rotatable=0;points=[[0,0.5],[1,0.5]];portConstraint=eastwest;whiteSpace=wrap;html=1;" vertex="1" parent="DNJKY25j3gg6kxP67qaG-19">
          <mxGeometry y="78" width="140" height="32" as="geometry" />
        </mxCell>
        <mxCell id="DNJKY25j3gg6kxP67qaG-23" value="insert_data" style="text;strokeColor=none;fillColor=none;align=left;verticalAlign=top;spacingLeft=4;spacingRight=4;overflow=hidden;rotatable=0;points=[[0,0.5],[1,0.5]];portConstraint=eastwest;whiteSpace=wrap;html=1;" vertex="1" parent="DNJKY25j3gg6kxP67qaG-19">
          <mxGeometry y="110" width="140" height="32" as="geometry" />
        </mxCell>
      </root>
    </mxGraphModel>
  </diagram>
</mxfile>
